<svg width="99" height="57" viewBox="0 0 99 57" fill="none" xmlns="http://www.w3.org/2000/svg">
<path d="M47.7425 35.698C43.5351 46.8032 31.2831 52.4403 20.3872 48.3122C9.49128 44.1842 4.0502 31.8439 8.25755 20.7386C12.4649 9.63344 24.7169 3.99634 35.6128 8.12438C46.5087 12.2524 51.9498 24.5928 47.7425 35.698Z" fill="none" stroke="black"/>
<path d="M35.4407 31.0373C33.8066 35.3504 29.0691 37.534 24.8721 35.9439C20.6751 34.3539 18.5738 29.5792 20.2078 25.2662C21.8419 20.9531 26.5794 18.7695 30.7764 20.3596C34.9734 21.9497 37.0747 26.7243 35.4407 31.0373Z" fill="none" stroke="black"/>
<circle cx="18.9808" cy="15.974" r="4.69823" fill="#74989C"/>
<circle cx="25.3704" cy="13.7188" r="4.69823" fill="#74989C"/>
<circle cx="31.76" cy="13.7188" r="4.69823" fill="#74989C"/>
<circle cx="37.3979" cy="15.974" r="4.69823" fill="#74989C"/>
<circle cx="15.2222" cy="20.8601" r="4.69823" fill="#74989C"/>
<circle cx="13.343" cy="27.6256" r="4.69823" fill="#74989C"/>
<circle cx="14.4705" cy="34.7669" r="4.69823" fill="#74989C"/>
<circle cx="18.2291" cy="39.653" r="4.69823" fill="#74989C"/>
<circle cx="25.3704" cy="42.6599" r="4.69823" fill="#74989C"/>
<circle cx="32.5117" cy="42.6599" r="4.69823" fill="#74989C"/>
<circle cx="38.5255" cy="39.2772" r="4.69823" fill="#74989C"/>
<circle cx="41.9082" cy="33.2634" r="4.69823" fill="#74989C"/>
<circle cx="41.9082" cy="26.8739" r="4.69823" fill="#74989C"/>
<circle cx="40.4048" cy="20.8601" r="4.69823" fill="#74989C"/>
<path d="M90.7425 35.698C86.5351 46.8032 74.2831 52.4403 63.3872 48.3122C52.4913 44.1842 47.0502 31.8439 51.2575 20.7386C55.4649 9.63344 67.7169 3.99634 78.6128 8.12438C89.5087 12.2524 94.9498 24.5928 90.7425 35.698Z" fill="none" stroke="black"/>
<path d="M78.4407 31.0373C76.8067 35.3504 72.0691 37.534 67.8721 35.9439C63.6751 34.3539 61.5738 29.5792 63.2078 25.2662C64.8419 20.9531 69.5794 18.7695 73.7764 20.3596C77.9734 21.9497 80.0747 26.7243 78.4407 31.0373Z" fill="none" stroke="black"/>
<circle cx="61.9808" cy="15.974" r="4.69823" fill="#F2C1F1"/>
<circle cx="68.3704" cy="13.7188" r="4.69823" fill="#F2C1F1"/>
<circle cx="74.76" cy="13.7188" r="4.69823" fill="#F2C1F1"/>
<circle cx="80.3979" cy="15.974" r="4.69823" fill="#F2C1F1"/>
<circle cx="58.2223" cy="20.8601" r="4.69823" fill="#F2C1F1"/>
<circle cx="56.343" cy="27.6256" r="4.69823" fill="#F2C1F1"/>
<circle cx="57.4705" cy="34.7669" r="4.69823" fill="#F2C1F1"/>
<circle cx="61.2291" cy="39.653" r="4.69823" fill="#F2C1F1"/>
<circle cx="68.3704" cy="42.6599" r="4.69823" fill="#F2C1F1"/>
<circle cx="75.5117" cy="42.6599" r="4.69823" fill="#F2C1F1"/>
<circle cx="81.5255" cy="39.2772" r="4.69823" fill="#F2C1F1"/>
<circle cx="84.9082" cy="33.2634" r="4.69823" fill="#F2C1F1"/>
<circle cx="84.9082" cy="26.8739" r="4.69823" fill="#F2C1F1"/>
<circle cx="83.4047" cy="20.8601" r="4.69823" fill="#F2C1F1"/>
</svg>
